<svg id="Layer_1" data-name="Layer 1" xmlns="http://www.w3.org/2000/svg" viewBox="0 0 300 300"><defs><style>.cls-1{fill:#788ade;stroke:#614df2;stroke-miterlimit:10;stroke-width:15px;}.cls-2{fill:#fff;}</style></defs><circle class="cls-1" cx="150" cy="150" r="112.15825"/><path class="cls-2" d="M145.821,149.5S144,128,166,124c22-23,41.51486-42,41.51486-42S220,80.35688,218,92.17844C208,104.82156,180,139,180,139s2,23-21,23H110.8731s-12.1269-6,0-12C129.1269,150,145.821,149.5,145.821,149.5Z"/><path class="cls-2" d="M172,102l-10.14983,9.43547H97.32186v60.624h98.78143V137.02973L205,126v61.39376S204,195,196,195H95.18219S87,193.80239,87,182.40119V110.009S85.0776,102,95.5388,102Z"/><rect class="cls-2" x="120" y="207" width="54" height="9" rx="3.88766"/></svg>