<svg width="1920" height="1080" viewBox="0 0 1920 1080" fill="none" xmlns="http://www.w3.org/2000/svg">
<g clip-path="url(#clip0_1652_134)">
<g opacity="0.16">
<path fill-rule="evenodd" clip-rule="evenodd" d="M59.75 1109V-9H60.25V1109H59.75ZM159.75 1109V-9H160.25V1109H159.75ZM259.75 1109V-9H260.25V1109H259.75ZM359.75 1109V-9H360.25V1109H359.75ZM459.75 1109V-9H460.25V1109H459.75ZM559.75 1109V-9H560.25V1109H559.75ZM659.75 1109V-9H660.25V1109H659.75ZM759.75 1109V-9H760.25V1109H759.75ZM859.75 1109V-9H860.25V1109H859.75ZM959.75 1109V-9H960.25V1109H959.75ZM1059.75 1109V-9H1060.25V1109H1059.75ZM1159.75 1109V-9H1160.25V1109H1159.75ZM1259.75 1109V-9H1260.25V1109H1259.75ZM1359.75 1109V-9H1360.25V1109H1359.75ZM1459.75 1109V-9H1460.25V1109H1459.75ZM1559.75 1109V-9H1560.25V1109H1559.75ZM1659.75 1109V-9H1660.25V1109H1659.75ZM1759.75 1109V-9H1760.25V1109H1759.75ZM1859.75 1109V-9H1860.25V1109H1859.75Z" fill="white"/>
<path fill-rule="evenodd" clip-rule="evenodd" d="M1938 100.25H-19V99.75H1938V100.25ZM1938 200.25H-19V199.75H1938V200.25ZM1938 300.25H-19V299.75H1938V300.25ZM1938 400.25H-19V399.75H1938V400.25ZM1938 500.25H-19V499.75H1938V500.25ZM1938 600.25H-19V599.75H1938V600.25ZM1938 700.25H-19V699.75H1938V700.25ZM1938 800.25H-19V799.75H1938V800.25ZM1938 900.25H-19V899.75H1938V900.25ZM1938 1000.25H-19V999.75H1938V1000.25Z" fill="white"/>
<path d="M60 96L61.0804 98.9196L64 100L61.0804 101.08L60 104L58.9196 101.08L56 100L58.9196 98.9196L60 96Z" fill="white"/>
<path d="M160 96L161.08 98.9196L164 100L161.08 101.08L160 104L158.92 101.08L156 100L158.92 98.9196L160 96Z" fill="white"/>
<path d="M260 96L261.08 98.9196L264 100L261.08 101.08L260 104L258.92 101.08L256 100L258.92 98.9196L260 96Z" fill="white"/>
<path d="M360 96L361.08 98.9196L364 100L361.08 101.08L360 104L358.92 101.08L356 100L358.92 98.9196L360 96Z" fill="white"/>
<path d="M460 96L461.08 98.9196L464 100L461.08 101.08L460 104L458.92 101.08L456 100L458.92 98.9196L460 96Z" fill="white"/>
<path d="M560 96L561.08 98.9196L564 100L561.08 101.08L560 104L558.92 101.08L556 100L558.92 98.9196L560 96Z" fill="white"/>
<path d="M660 96L661.08 98.9196L664 100L661.08 101.08L660 104L658.92 101.08L656 100L658.92 98.9196L660 96Z" fill="white"/>
<path d="M760 96L761.08 98.9196L764 100L761.08 101.08L760 104L758.92 101.08L756 100L758.92 98.9196L760 96Z" fill="white"/>
<path d="M860 96L861.08 98.9196L864 100L861.08 101.08L860 104L858.92 101.08L856 100L858.92 98.9196L860 96Z" fill="white"/>
<path d="M960 96L961.08 98.9196L964 100L961.08 101.08L960 104L958.92 101.08L956 100L958.92 98.9196L960 96Z" fill="white"/>
<path d="M1060 96L1061.08 98.9196L1064 100L1061.08 101.08L1060 104L1058.92 101.08L1056 100L1058.92 98.9196L1060 96Z" fill="white"/>
<path d="M1160 96L1161.08 98.9196L1164 100L1161.08 101.08L1160 104L1158.92 101.08L1156 100L1158.92 98.9196L1160 96Z" fill="white"/>
<path d="M1260 96L1261.08 98.9196L1264 100L1261.08 101.08L1260 104L1258.92 101.08L1256 100L1258.92 98.9196L1260 96Z" fill="white"/>
<path d="M1360 96L1361.08 98.9196L1364 100L1361.08 101.08L1360 104L1358.92 101.08L1356 100L1358.92 98.9196L1360 96Z" fill="white"/>
<path d="M1460 96L1461.08 98.9196L1464 100L1461.08 101.08L1460 104L1458.92 101.08L1456 100L1458.92 98.9196L1460 96Z" fill="white"/>
<path d="M1560 96L1561.08 98.9196L1564 100L1561.08 101.08L1560 104L1558.92 101.08L1556 100L1558.92 98.9196L1560 96Z" fill="white"/>
<path d="M1660 96L1661.08 98.9196L1664 100L1661.08 101.08L1660 104L1658.92 101.08L1656 100L1658.92 98.9196L1660 96Z" fill="white"/>
<path d="M1760 96L1761.08 98.9196L1764 100L1761.08 101.08L1760 104L1758.92 101.08L1756 100L1758.92 98.9196L1760 96Z" fill="white"/>
<path d="M1860 96L1861.08 98.9196L1864 100L1861.08 101.08L1860 104L1858.92 101.08L1856 100L1858.92 98.9196L1860 96Z" fill="white"/>
<path d="M60 196L61.0804 198.92L64 200L61.0804 201.08L60 204L58.9196 201.08L56 200L58.9196 198.92L60 196Z" fill="white"/>
<path d="M160 196L161.08 198.92L164 200L161.08 201.08L160 204L158.92 201.08L156 200L158.92 198.92L160 196Z" fill="white"/>
<path d="M260 196L261.08 198.92L264 200L261.08 201.08L260 204L258.92 201.08L256 200L258.92 198.92L260 196Z" fill="white"/>
<path d="M360 196L361.08 198.92L364 200L361.08 201.08L360 204L358.92 201.08L356 200L358.92 198.92L360 196Z" fill="white"/>
<path d="M460 196L461.08 198.92L464 200L461.08 201.08L460 204L458.92 201.08L456 200L458.92 198.92L460 196Z" fill="white"/>
<path d="M560 196L561.08 198.92L564 200L561.08 201.08L560 204L558.92 201.08L556 200L558.92 198.92L560 196Z" fill="white"/>
<path d="M660 196L661.08 198.92L664 200L661.08 201.08L660 204L658.92 201.08L656 200L658.92 198.92L660 196Z" fill="white"/>
<path d="M760 196L761.08 198.92L764 200L761.08 201.08L760 204L758.92 201.08L756 200L758.92 198.92L760 196Z" fill="white"/>
<path d="M860 196L861.08 198.92L864 200L861.08 201.08L860 204L858.92 201.08L856 200L858.92 198.92L860 196Z" fill="white"/>
<path d="M960 196L961.08 198.92L964 200L961.08 201.08L960 204L958.92 201.08L956 200L958.92 198.92L960 196Z" fill="white"/>
<path d="M1060 196L1061.08 198.92L1064 200L1061.08 201.08L1060 204L1058.92 201.08L1056 200L1058.92 198.92L1060 196Z" fill="white"/>
<path d="M1160 196L1161.08 198.92L1164 200L1161.08 201.08L1160 204L1158.92 201.08L1156 200L1158.92 198.92L1160 196Z" fill="white"/>
<path d="M1260 196L1261.08 198.92L1264 200L1261.08 201.08L1260 204L1258.92 201.08L1256 200L1258.92 198.92L1260 196Z" fill="white"/>
<path d="M1360 196L1361.08 198.92L1364 200L1361.08 201.08L1360 204L1358.92 201.08L1356 200L1358.92 198.92L1360 196Z" fill="white"/>
<path d="M1460 196L1461.08 198.92L1464 200L1461.08 201.08L1460 204L1458.92 201.08L1456 200L1458.92 198.92L1460 196Z" fill="white"/>
<path d="M1560 196L1561.08 198.92L1564 200L1561.08 201.08L1560 204L1558.92 201.08L1556 200L1558.92 198.92L1560 196Z" fill="white"/>
<path d="M1660 196L1661.08 198.92L1664 200L1661.08 201.08L1660 204L1658.92 201.08L1656 200L1658.92 198.92L1660 196Z" fill="white"/>
<path d="M1760 196L1761.08 198.92L1764 200L1761.08 201.08L1760 204L1758.92 201.08L1756 200L1758.92 198.92L1760 196Z" fill="white"/>
<path d="M1860 196L1861.08 198.92L1864 200L1861.08 201.08L1860 204L1858.92 201.08L1856 200L1858.92 198.92L1860 196Z" fill="white"/>
<path d="M60 296L61.0804 298.92L64 300L61.0804 301.08L60 304L58.9196 301.08L56 300L58.9196 298.92L60 296Z" fill="white"/>
<path d="M160 296L161.08 298.92L164 300L161.08 301.08L160 304L158.92 301.08L156 300L158.92 298.92L160 296Z" fill="white"/>
<path d="M260 296L261.08 298.92L264 300L261.08 301.08L260 304L258.92 301.08L256 300L258.92 298.92L260 296Z" fill="white"/>
<path d="M360 296L361.08 298.92L364 300L361.08 301.08L360 304L358.92 301.08L356 300L358.92 298.92L360 296Z" fill="white"/>
<path d="M460 296L461.08 298.92L464 300L461.08 301.08L460 304L458.92 301.08L456 300L458.92 298.92L460 296Z" fill="white"/>
<path d="M560 296L561.08 298.92L564 300L561.08 301.08L560 304L558.92 301.08L556 300L558.92 298.92L560 296Z" fill="white"/>
<path d="M660 296L661.08 298.92L664 300L661.08 301.08L660 304L658.92 301.08L656 300L658.92 298.92L660 296Z" fill="white"/>
<path d="M760 296L761.08 298.92L764 300L761.08 301.08L760 304L758.92 301.08L756 300L758.92 298.92L760 296Z" fill="white"/>
<path d="M860 296L861.08 298.92L864 300L861.08 301.08L860 304L858.92 301.08L856 300L858.92 298.92L860 296Z" fill="white"/>
<path d="M960 296L961.08 298.92L964 300L961.08 301.08L960 304L958.92 301.08L956 300L958.92 298.92L960 296Z" fill="white"/>
<path d="M1060 296L1061.08 298.92L1064 300L1061.08 301.08L1060 304L1058.92 301.08L1056 300L1058.92 298.92L1060 296Z" fill="white"/>
<path d="M1160 296L1161.08 298.92L1164 300L1161.08 301.08L1160 304L1158.92 301.08L1156 300L1158.92 298.92L1160 296Z" fill="white"/>
<path d="M1260 296L1261.08 298.92L1264 300L1261.08 301.08L1260 304L1258.92 301.08L1256 300L1258.92 298.92L1260 296Z" fill="white"/>
<path d="M1360 296L1361.08 298.92L1364 300L1361.08 301.08L1360 304L1358.92 301.08L1356 300L1358.92 298.92L1360 296Z" fill="white"/>
<path d="M1460 296L1461.08 298.92L1464 300L1461.08 301.08L1460 304L1458.92 301.08L1456 300L1458.92 298.92L1460 296Z" fill="white"/>
<path d="M1560 296L1561.08 298.92L1564 300L1561.08 301.08L1560 304L1558.92 301.08L1556 300L1558.92 298.92L1560 296Z" fill="white"/>
<path d="M1660 296L1661.08 298.92L1664 300L1661.08 301.08L1660 304L1658.92 301.08L1656 300L1658.92 298.92L1660 296Z" fill="white"/>
<path d="M1760 296L1761.08 298.92L1764 300L1761.08 301.08L1760 304L1758.92 301.08L1756 300L1758.92 298.92L1760 296Z" fill="white"/>
<path d="M1860 296L1861.08 298.92L1864 300L1861.08 301.08L1860 304L1858.92 301.08L1856 300L1858.92 298.92L1860 296Z" fill="white"/>
<path d="M60 396L61.0804 398.92L64 400L61.0804 401.08L60 404L58.9196 401.08L56 400L58.9196 398.92L60 396Z" fill="white"/>
<path d="M160 396L161.08 398.92L164 400L161.08 401.08L160 404L158.92 401.08L156 400L158.92 398.92L160 396Z" fill="white"/>
<path d="M260 396L261.08 398.92L264 400L261.08 401.08L260 404L258.92 401.08L256 400L258.92 398.92L260 396Z" fill="white"/>
<path d="M360 396L361.08 398.92L364 400L361.08 401.08L360 404L358.92 401.08L356 400L358.92 398.92L360 396Z" fill="white"/>
<path d="M460 396L461.08 398.92L464 400L461.08 401.08L460 404L458.92 401.08L456 400L458.92 398.92L460 396Z" fill="white"/>
<path d="M560 396L561.08 398.92L564 400L561.08 401.08L560 404L558.92 401.08L556 400L558.92 398.92L560 396Z" fill="white"/>
<path d="M660 396L661.08 398.92L664 400L661.08 401.08L660 404L658.92 401.08L656 400L658.92 398.92L660 396Z" fill="white"/>
<path d="M760 396L761.08 398.92L764 400L761.08 401.08L760 404L758.92 401.08L756 400L758.92 398.92L760 396Z" fill="white"/>
<path d="M860 396L861.08 398.92L864 400L861.08 401.08L860 404L858.92 401.08L856 400L858.92 398.92L860 396Z" fill="white"/>
<path d="M960 396L961.08 398.92L964 400L961.08 401.08L960 404L958.92 401.08L956 400L958.92 398.92L960 396Z" fill="white"/>
<path d="M1060 396L1061.08 398.92L1064 400L1061.08 401.08L1060 404L1058.92 401.08L1056 400L1058.92 398.92L1060 396Z" fill="white"/>
<path d="M1160 396L1161.08 398.92L1164 400L1161.08 401.08L1160 404L1158.92 401.08L1156 400L1158.92 398.92L1160 396Z" fill="white"/>
<path d="M1260 396L1261.08 398.92L1264 400L1261.08 401.08L1260 404L1258.92 401.08L1256 400L1258.92 398.92L1260 396Z" fill="white"/>
<path d="M1360 396L1361.08 398.92L1364 400L1361.08 401.08L1360 404L1358.92 401.08L1356 400L1358.92 398.92L1360 396Z" fill="white"/>
<path d="M1460 396L1461.08 398.92L1464 400L1461.08 401.08L1460 404L1458.92 401.08L1456 400L1458.92 398.92L1460 396Z" fill="white"/>
<path d="M1560 396L1561.08 398.92L1564 400L1561.08 401.08L1560 404L1558.92 401.08L1556 400L1558.92 398.92L1560 396Z" fill="white"/>
<path d="M1660 396L1661.08 398.92L1664 400L1661.08 401.08L1660 404L1658.92 401.08L1656 400L1658.92 398.92L1660 396Z" fill="white"/>
<path d="M1760 396L1761.08 398.92L1764 400L1761.08 401.08L1760 404L1758.92 401.08L1756 400L1758.92 398.92L1760 396Z" fill="white"/>
<path d="M1860 396L1861.08 398.92L1864 400L1861.08 401.08L1860 404L1858.92 401.08L1856 400L1858.92 398.92L1860 396Z" fill="white"/>
<path d="M60 496L61.0804 498.92L64 500L61.0804 501.08L60 504L58.9196 501.08L56 500L58.9196 498.92L60 496Z" fill="white"/>
<path d="M160 496L161.08 498.92L164 500L161.08 501.08L160 504L158.92 501.08L156 500L158.92 498.92L160 496Z" fill="white"/>
<path d="M260 496L261.08 498.92L264 500L261.08 501.08L260 504L258.92 501.08L256 500L258.92 498.92L260 496Z" fill="white"/>
<path d="M360 496L361.08 498.92L364 500L361.08 501.08L360 504L358.92 501.08L356 500L358.92 498.92L360 496Z" fill="white"/>
<path d="M460 496L461.08 498.92L464 500L461.08 501.08L460 504L458.92 501.08L456 500L458.92 498.92L460 496Z" fill="white"/>
<path d="M560 496L561.08 498.92L564 500L561.08 501.08L560 504L558.92 501.08L556 500L558.92 498.92L560 496Z" fill="white"/>
<path d="M660 496L661.08 498.92L664 500L661.08 501.08L660 504L658.92 501.08L656 500L658.92 498.92L660 496Z" fill="white"/>
<path d="M760 496L761.08 498.92L764 500L761.08 501.08L760 504L758.92 501.08L756 500L758.92 498.92L760 496Z" fill="white"/>
<path d="M860 496L861.08 498.92L864 500L861.08 501.08L860 504L858.92 501.08L856 500L858.92 498.92L860 496Z" fill="white"/>
<path d="M960 496L961.08 498.92L964 500L961.08 501.08L960 504L958.92 501.08L956 500L958.92 498.92L960 496Z" fill="white"/>
<path d="M1060 496L1061.08 498.92L1064 500L1061.08 501.08L1060 504L1058.92 501.08L1056 500L1058.92 498.92L1060 496Z" fill="white"/>
<path d="M1160 496L1161.08 498.92L1164 500L1161.08 501.08L1160 504L1158.92 501.08L1156 500L1158.92 498.92L1160 496Z" fill="white"/>
<path d="M1260 496L1261.08 498.92L1264 500L1261.08 501.08L1260 504L1258.92 501.08L1256 500L1258.92 498.92L1260 496Z" fill="white"/>
<path d="M1360 496L1361.08 498.92L1364 500L1361.08 501.08L1360 504L1358.92 501.08L1356 500L1358.92 498.92L1360 496Z" fill="white"/>
<path d="M1460 496L1461.08 498.92L1464 500L1461.08 501.08L1460 504L1458.92 501.08L1456 500L1458.92 498.92L1460 496Z" fill="white"/>
<path d="M1560 496L1561.08 498.92L1564 500L1561.08 501.08L1560 504L1558.92 501.08L1556 500L1558.92 498.92L1560 496Z" fill="white"/>
<path d="M1660 496L1661.08 498.92L1664 500L1661.08 501.08L1660 504L1658.92 501.08L1656 500L1658.92 498.92L1660 496Z" fill="white"/>
<path d="M1760 496L1761.08 498.92L1764 500L1761.08 501.08L1760 504L1758.92 501.08L1756 500L1758.92 498.92L1760 496Z" fill="white"/>
<path d="M1860 496L1861.08 498.92L1864 500L1861.08 501.08L1860 504L1858.92 501.08L1856 500L1858.92 498.92L1860 496Z" fill="white"/>
<path d="M60 596L61.0804 598.92L64 600L61.0804 601.08L60 604L58.9196 601.08L56 600L58.9196 598.92L60 596Z" fill="white"/>
<path d="M160 596L161.08 598.92L164 600L161.08 601.08L160 604L158.92 601.08L156 600L158.92 598.92L160 596Z" fill="white"/>
<path d="M260 596L261.08 598.92L264 600L261.08 601.08L260 604L258.92 601.08L256 600L258.92 598.92L260 596Z" fill="white"/>
<path d="M360 596L361.08 598.92L364 600L361.08 601.08L360 604L358.92 601.08L356 600L358.92 598.92L360 596Z" fill="white"/>
<path d="M460 596L461.08 598.92L464 600L461.08 601.08L460 604L458.92 601.08L456 600L458.92 598.92L460 596Z" fill="white"/>
<path d="M560 596L561.08 598.92L564 600L561.08 601.08L560 604L558.92 601.08L556 600L558.92 598.92L560 596Z" fill="white"/>
<path d="M660 596L661.08 598.92L664 600L661.08 601.08L660 604L658.92 601.08L656 600L658.92 598.92L660 596Z" fill="white"/>
<path d="M760 596L761.08 598.92L764 600L761.08 601.08L760 604L758.92 601.08L756 600L758.92 598.92L760 596Z" fill="white"/>
<path d="M860 596L861.08 598.92L864 600L861.08 601.08L860 604L858.92 601.08L856 600L858.92 598.92L860 596Z" fill="white"/>
<path d="M960 596L961.08 598.92L964 600L961.08 601.08L960 604L958.92 601.08L956 600L958.92 598.92L960 596Z" fill="white"/>
<path d="M1060 596L1061.08 598.92L1064 600L1061.08 601.08L1060 604L1058.92 601.08L1056 600L1058.92 598.92L1060 596Z" fill="white"/>
<path d="M1160 596L1161.08 598.92L1164 600L1161.08 601.08L1160 604L1158.92 601.08L1156 600L1158.92 598.92L1160 596Z" fill="white"/>
<path d="M1260 596L1261.08 598.92L1264 600L1261.08 601.08L1260 604L1258.92 601.08L1256 600L1258.92 598.92L1260 596Z" fill="white"/>
<path d="M1360 596L1361.08 598.92L1364 600L1361.08 601.08L1360 604L1358.92 601.08L1356 600L1358.92 598.92L1360 596Z" fill="white"/>
<path d="M1460 596L1461.08 598.92L1464 600L1461.08 601.08L1460 604L1458.92 601.08L1456 600L1458.92 598.92L1460 596Z" fill="white"/>
<path d="M1560 596L1561.08 598.92L1564 600L1561.08 601.08L1560 604L1558.92 601.08L1556 600L1558.92 598.92L1560 596Z" fill="white"/>
<path d="M1660 596L1661.08 598.92L1664 600L1661.08 601.08L1660 604L1658.92 601.08L1656 600L1658.92 598.92L1660 596Z" fill="white"/>
<path d="M1760 596L1761.08 598.92L1764 600L1761.08 601.08L1760 604L1758.92 601.08L1756 600L1758.92 598.92L1760 596Z" fill="white"/>
<path d="M1860 596L1861.08 598.92L1864 600L1861.08 601.08L1860 604L1858.92 601.08L1856 600L1858.92 598.92L1860 596Z" fill="white"/>
<path d="M60 696L61.0804 698.92L64 700L61.0804 701.08L60 704L58.9196 701.08L56 700L58.9196 698.92L60 696Z" fill="white"/>
<path d="M160 696L161.08 698.92L164 700L161.08 701.08L160 704L158.92 701.08L156 700L158.92 698.92L160 696Z" fill="white"/>
<path d="M260 696L261.08 698.92L264 700L261.08 701.08L260 704L258.92 701.08L256 700L258.92 698.92L260 696Z" fill="white"/>
<path d="M360 696L361.08 698.92L364 700L361.08 701.08L360 704L358.92 701.08L356 700L358.92 698.92L360 696Z" fill="white"/>
<path d="M460 696L461.08 698.92L464 700L461.08 701.08L460 704L458.92 701.08L456 700L458.92 698.92L460 696Z" fill="white"/>
<path d="M560 696L561.08 698.92L564 700L561.08 701.08L560 704L558.92 701.08L556 700L558.92 698.92L560 696Z" fill="white"/>
<path d="M660 696L661.08 698.92L664 700L661.08 701.08L660 704L658.92 701.08L656 700L658.92 698.92L660 696Z" fill="white"/>
<path d="M760 696L761.08 698.92L764 700L761.08 701.08L760 704L758.92 701.08L756 700L758.92 698.92L760 696Z" fill="white"/>
<path d="M860 696L861.08 698.92L864 700L861.08 701.08L860 704L858.92 701.08L856 700L858.92 698.92L860 696Z" fill="white"/>
<path d="M960 696L961.08 698.92L964 700L961.08 701.08L960 704L958.92 701.08L956 700L958.92 698.92L960 696Z" fill="white"/>
<path d="M1060 696L1061.08 698.92L1064 700L1061.08 701.08L1060 704L1058.92 701.08L1056 700L1058.92 698.92L1060 696Z" fill="white"/>
<path d="M1160 696L1161.08 698.92L1164 700L1161.08 701.08L1160 704L1158.92 701.08L1156 700L1158.92 698.92L1160 696Z" fill="white"/>
<path d="M1260 696L1261.08 698.92L1264 700L1261.08 701.08L1260 704L1258.92 701.08L1256 700L1258.92 698.92L1260 696Z" fill="white"/>
<path d="M1360 696L1361.08 698.92L1364 700L1361.08 701.08L1360 704L1358.92 701.08L1356 700L1358.92 698.92L1360 696Z" fill="white"/>
<path d="M1460 696L1461.08 698.92L1464 700L1461.08 701.08L1460 704L1458.92 701.08L1456 700L1458.92 698.92L1460 696Z" fill="white"/>
<path d="M1560 696L1561.08 698.92L1564 700L1561.08 701.08L1560 704L1558.92 701.08L1556 700L1558.92 698.92L1560 696Z" fill="white"/>
<path d="M1660 696L1661.08 698.92L1664 700L1661.08 701.08L1660 704L1658.92 701.08L1656 700L1658.92 698.92L1660 696Z" fill="white"/>
<path d="M1760 696L1761.08 698.92L1764 700L1761.08 701.08L1760 704L1758.92 701.08L1756 700L1758.92 698.92L1760 696Z" fill="white"/>
<path d="M1860 696L1861.08 698.92L1864 700L1861.08 701.08L1860 704L1858.92 701.08L1856 700L1858.92 698.92L1860 696Z" fill="white"/>
<path d="M60 796L61.0804 798.92L64 800L61.0804 801.08L60 804L58.9196 801.08L56 800L58.9196 798.92L60 796Z" fill="white"/>
<path d="M160 796L161.08 798.92L164 800L161.08 801.08L160 804L158.92 801.08L156 800L158.92 798.92L160 796Z" fill="white"/>
<path d="M260 796L261.08 798.92L264 800L261.08 801.08L260 804L258.92 801.08L256 800L258.92 798.92L260 796Z" fill="white"/>
<path d="M360 796L361.08 798.92L364 800L361.08 801.08L360 804L358.92 801.08L356 800L358.92 798.92L360 796Z" fill="white"/>
<path d="M460 796L461.08 798.92L464 800L461.08 801.08L460 804L458.92 801.08L456 800L458.92 798.92L460 796Z" fill="white"/>
<path d="M560 796L561.08 798.92L564 800L561.08 801.08L560 804L558.92 801.08L556 800L558.92 798.92L560 796Z" fill="white"/>
<path d="M660 796L661.08 798.92L664 800L661.08 801.08L660 804L658.92 801.08L656 800L658.92 798.92L660 796Z" fill="white"/>
<path d="M760 796L761.08 798.92L764 800L761.08 801.08L760 804L758.92 801.08L756 800L758.92 798.92L760 796Z" fill="white"/>
<path d="M860 796L861.08 798.92L864 800L861.08 801.08L860 804L858.92 801.08L856 800L858.92 798.92L860 796Z" fill="white"/>
<path d="M960 796L961.08 798.92L964 800L961.08 801.08L960 804L958.92 801.08L956 800L958.92 798.92L960 796Z" fill="white"/>
<path d="M1060 796L1061.08 798.92L1064 800L1061.08 801.08L1060 804L1058.92 801.08L1056 800L1058.92 798.92L1060 796Z" fill="white"/>
<path d="M1160 796L1161.08 798.92L1164 800L1161.08 801.08L1160 804L1158.92 801.08L1156 800L1158.92 798.92L1160 796Z" fill="white"/>
<path d="M1260 796L1261.08 798.92L1264 800L1261.08 801.08L1260 804L1258.92 801.08L1256 800L1258.92 798.92L1260 796Z" fill="white"/>
<path d="M1360 796L1361.08 798.92L1364 800L1361.08 801.08L1360 804L1358.92 801.08L1356 800L1358.92 798.92L1360 796Z" fill="white"/>
<path d="M1460 796L1461.08 798.92L1464 800L1461.08 801.08L1460 804L1458.92 801.08L1456 800L1458.92 798.92L1460 796Z" fill="white"/>
<path d="M1560 796L1561.08 798.92L1564 800L1561.08 801.08L1560 804L1558.92 801.08L1556 800L1558.92 798.92L1560 796Z" fill="white"/>
<path d="M1660 796L1661.08 798.92L1664 800L1661.08 801.08L1660 804L1658.92 801.08L1656 800L1658.92 798.92L1660 796Z" fill="white"/>
<path d="M1760 796L1761.08 798.92L1764 800L1761.08 801.08L1760 804L1758.92 801.08L1756 800L1758.92 798.92L1760 796Z" fill="white"/>
<path d="M1860 796L1861.08 798.92L1864 800L1861.08 801.08L1860 804L1858.92 801.08L1856 800L1858.92 798.92L1860 796Z" fill="white"/>
<path d="M60 896L61.0804 898.92L64 900L61.0804 901.08L60 904L58.9196 901.08L56 900L58.9196 898.92L60 896Z" fill="white"/>
<path d="M160 896L161.08 898.92L164 900L161.08 901.08L160 904L158.92 901.08L156 900L158.92 898.92L160 896Z" fill="white"/>
<path d="M260 896L261.08 898.92L264 900L261.08 901.08L260 904L258.92 901.08L256 900L258.92 898.92L260 896Z" fill="white"/>
<path d="M360 896L361.08 898.92L364 900L361.08 901.08L360 904L358.92 901.08L356 900L358.92 898.92L360 896Z" fill="white"/>
<path d="M460 896L461.08 898.92L464 900L461.08 901.08L460 904L458.92 901.08L456 900L458.92 898.92L460 896Z" fill="white"/>
<path d="M560 896L561.08 898.92L564 900L561.08 901.08L560 904L558.92 901.08L556 900L558.92 898.92L560 896Z" fill="white"/>
<path d="M660 896L661.08 898.92L664 900L661.08 901.08L660 904L658.92 901.08L656 900L658.92 898.92L660 896Z" fill="white"/>
<path d="M760 896L761.08 898.92L764 900L761.08 901.08L760 904L758.92 901.08L756 900L758.92 898.92L760 896Z" fill="white"/>
<path d="M860 896L861.08 898.92L864 900L861.08 901.08L860 904L858.92 901.08L856 900L858.92 898.92L860 896Z" fill="white"/>
<path d="M960 896L961.08 898.92L964 900L961.08 901.08L960 904L958.92 901.08L956 900L958.92 898.92L960 896Z" fill="white"/>
<path d="M1060 896L1061.08 898.92L1064 900L1061.08 901.08L1060 904L1058.92 901.08L1056 900L1058.92 898.92L1060 896Z" fill="white"/>
<path d="M1160 896L1161.08 898.92L1164 900L1161.08 901.08L1160 904L1158.92 901.08L1156 900L1158.92 898.92L1160 896Z" fill="white"/>
<path d="M1260 896L1261.08 898.92L1264 900L1261.08 901.08L1260 904L1258.92 901.08L1256 900L1258.92 898.92L1260 896Z" fill="white"/>
<path d="M1360 896L1361.08 898.92L1364 900L1361.08 901.08L1360 904L1358.92 901.08L1356 900L1358.92 898.92L1360 896Z" fill="white"/>
<path d="M1460 896L1461.08 898.92L1464 900L1461.08 901.08L1460 904L1458.92 901.08L1456 900L1458.92 898.92L1460 896Z" fill="white"/>
<path d="M1560 896L1561.08 898.92L1564 900L1561.08 901.08L1560 904L1558.92 901.08L1556 900L1558.92 898.92L1560 896Z" fill="white"/>
<path d="M1660 896L1661.08 898.92L1664 900L1661.08 901.08L1660 904L1658.92 901.08L1656 900L1658.92 898.92L1660 896Z" fill="white"/>
<path d="M1760 896L1761.08 898.92L1764 900L1761.08 901.08L1760 904L1758.92 901.08L1756 900L1758.92 898.92L1760 896Z" fill="white"/>
<path d="M1860 896L1861.08 898.92L1864 900L1861.08 901.08L1860 904L1858.92 901.08L1856 900L1858.92 898.92L1860 896Z" fill="white"/>
<path d="M60 996L61.0804 998.92L64 1000L61.0804 1001.08L60 1004L58.9196 1001.08L56 1000L58.9196 998.92L60 996Z" fill="white"/>
<path d="M160 996L161.08 998.92L164 1000L161.08 1001.08L160 1004L158.92 1001.08L156 1000L158.92 998.92L160 996Z" fill="white"/>
<path d="M260 996L261.08 998.92L264 1000L261.08 1001.08L260 1004L258.92 1001.08L256 1000L258.92 998.92L260 996Z" fill="white"/>
<path d="M360 996L361.08 998.92L364 1000L361.08 1001.08L360 1004L358.92 1001.08L356 1000L358.92 998.92L360 996Z" fill="white"/>
<path d="M460 996L461.08 998.92L464 1000L461.08 1001.08L460 1004L458.92 1001.08L456 1000L458.92 998.92L460 996Z" fill="white"/>
<path d="M560 996L561.08 998.92L564 1000L561.08 1001.08L560 1004L558.92 1001.08L556 1000L558.92 998.92L560 996Z" fill="white"/>
<path d="M660 996L661.08 998.92L664 1000L661.08 1001.08L660 1004L658.92 1001.08L656 1000L658.92 998.92L660 996Z" fill="white"/>
<path d="M760 996L761.08 998.92L764 1000L761.08 1001.08L760 1004L758.92 1001.08L756 1000L758.92 998.92L760 996Z" fill="white"/>
<path d="M860 996L861.08 998.92L864 1000L861.08 1001.08L860 1004L858.92 1001.08L856 1000L858.92 998.92L860 996Z" fill="white"/>
<path d="M960 996L961.08 998.92L964 1000L961.08 1001.08L960 1004L958.92 1001.08L956 1000L958.92 998.92L960 996Z" fill="white"/>
<path d="M1060 996L1061.08 998.92L1064 1000L1061.08 1001.08L1060 1004L1058.92 1001.08L1056 1000L1058.92 998.92L1060 996Z" fill="white"/>
<path d="M1160 996L1161.08 998.92L1164 1000L1161.08 1001.08L1160 1004L1158.92 1001.08L1156 1000L1158.92 998.92L1160 996Z" fill="white"/>
<path d="M1260 996L1261.08 998.92L1264 1000L1261.08 1001.08L1260 1004L1258.92 1001.08L1256 1000L1258.92 998.92L1260 996Z" fill="white"/>
<path d="M1360 996L1361.08 998.92L1364 1000L1361.08 1001.08L1360 1004L1358.92 1001.08L1356 1000L1358.92 998.92L1360 996Z" fill="white"/>
<path d="M1460 996L1461.08 998.92L1464 1000L1461.08 1001.08L1460 1004L1458.92 1001.08L1456 1000L1458.92 998.92L1460 996Z" fill="white"/>
<path d="M1560 996L1561.08 998.92L1564 1000L1561.08 1001.08L1560 1004L1558.92 1001.08L1556 1000L1558.92 998.92L1560 996Z" fill="white"/>
<path d="M1660 996L1661.08 998.92L1664 1000L1661.08 1001.08L1660 1004L1658.92 1001.08L1656 1000L1658.92 998.92L1660 996Z" fill="white"/>
<path d="M1760 996L1761.08 998.92L1764 1000L1761.08 1001.08L1760 1004L1758.92 1001.08L1756 1000L1758.92 998.92L1760 996Z" fill="white"/>
<path d="M1860 996L1861.08 998.92L1864 1000L1861.08 1001.08L1860 1004L1858.92 1001.08L1856 1000L1858.92 998.92L1860 996Z" fill="white"/>
</g>
</g>
<defs>
<clipPath id="clip0_1652_134">
<rect width="1920" height="1080" fill="white"/>
</clipPath>
</defs>
</svg>
