<svg id="Layer_1" data-name="Layer 1" xmlns="http://www.w3.org/2000/svg" xmlns:xlink="http://www.w3.org/1999/xlink" viewBox="0 0 1920 1080"><defs><style>.cls-1,.cls-5{fill:none;}.cls-2,.cls-5{opacity:0.1;}.cls-3{clip-path:url(#clip-path);}.cls-4{fill:#b3b3b3;}.cls-5{stroke:#b3b3b3;stroke-miterlimit:10;stroke-width:3px;}</style><clipPath id="clip-path"><rect class="cls-1" x="6" width="1920" height="1080"/></clipPath></defs><g class="cls-2"><g class="cls-3"><path class="cls-4" d="M2071.5144,1221.57227H-139.5143V-141.57111H2071.5144Zm-2208.17138-2.8125H2068.65723V-138.75864H-136.65714Z"/><rect class="cls-4" x="-138.08571" y="1014.70874" width="2208.1714" height="2.8125"/><rect class="cls-4" x="-138.08571" y="946.69238" width="2208.1714" height="2.8125"/><rect class="cls-4" x="-138.08571" y="878.67603" width="2208.1714" height="2.81244"/><rect class="cls-4" x="-138.08571" y="810.65961" width="2208.1714" height="2.8125"/><rect class="cls-4" x="-138.08571" y="742.64325" width="2208.1714" height="2.8125"/><rect class="cls-4" x="-138.08571" y="674.62683" width="2208.1714" height="2.8125"/><rect class="cls-4" x="-138.08571" y="606.61053" width="2208.1714" height="2.8125"/><rect class="cls-4" x="-138.08571" y="538.59412" width="2208.1714" height="2.8125"/><rect class="cls-4" x="-138.08571" y="470.57773" width="2208.1714" height="2.81253"/><rect class="cls-4" x="-138.08571" y="402.55984" width="2208.1714" height="2.81253"/><rect class="cls-4" x="-138.08571" y="334.54352" width="2208.1714" height="2.81247"/><rect class="cls-4" x="-138.08571" y="266.52713" width="2208.1714" height="2.81247"/><rect class="cls-4" x="-138.08571" y="198.51074" width="2208.1714" height="2.81253"/><rect class="cls-4" x="-138.08571" y="130.49434" width="2208.1714" height="2.81253"/><rect class="cls-4" x="-138.08571" y="62.47802" width="2208.1714" height="2.81246"/><rect class="cls-4" x="1867.91321" y="-140.1649" width="2.85706" height="1360.33092"/><rect class="cls-4" x="1800.99927" y="-140.1649" width="2.85718" height="1360.33092"/><rect class="cls-4" x="1734.08496" y="-140.1649" width="2.85718" height="1360.33092"/><rect class="cls-4" x="1667.17102" y="-140.1649" width="2.85718" height="1360.33092"/><rect class="cls-4" x="1600.25671" y="-140.1649" width="2.85718" height="1360.33092"/><rect class="cls-4" x="1533.3429" y="-140.1649" width="2.85706" height="1360.33092"/><rect class="cls-4" x="1466.42896" y="-140.1649" width="2.85718" height="1360.33092"/><rect class="cls-4" x="1399.51465" y="-140.1649" width="2.85718" height="1360.33092"/><rect class="cls-4" x="1332.60083" y="-140.1649" width="2.85706" height="1360.33092"/><rect class="cls-4" x="1265.68457" y="-140.1649" width="2.85706" height="1360.33092"/><rect class="cls-4" x="1198.77063" y="-140.1649" width="2.85718" height="1360.33092"/><rect class="cls-4" x="1131.85681" y="-140.1649" width="2.85706" height="1360.33092"/><rect class="cls-4" x="1064.9425" y="-140.1649" width="2.85706" height="1360.33092"/><rect class="cls-4" x="998.02856" y="-140.1649" width="2.85718" height="1360.33092"/><rect class="cls-4" x="931.11432" y="-140.1649" width="2.85712" height="1360.33092"/><rect class="cls-4" x="864.20038" y="-140.1649" width="2.85718" height="1360.33092"/><rect class="cls-4" x="797.2865" y="-140.1649" width="2.85712" height="1360.33092"/><rect class="cls-4" x="730.37219" y="-140.1649" width="2.85712" height="1360.33092"/><rect class="cls-4" x="663.45636" y="-140.1649" width="2.85718" height="1360.33092"/><rect class="cls-4" x="596.54205" y="-140.1649" width="2.85718" height="1360.33092"/><rect class="cls-4" x="529.62823" y="-140.1649" width="2.85712" height="1360.33092"/><rect class="cls-4" x="462.71426" y="-140.1649" width="2.85718" height="1360.33092"/><rect class="cls-4" x="395.79999" y="-140.1649" width="2.85718" height="1360.33092"/><rect class="cls-4" x="328.88605" y="-140.1649" width="2.85718" height="1360.33092"/><rect class="cls-4" x="261.97179" y="-140.1649" width="2.85716" height="1360.33092"/><rect class="cls-4" x="195.05792" y="-140.1649" width="2.8571" height="1360.33092"/><rect class="cls-4" x="128.14398" y="-140.1649" width="2.85717" height="1360.33092"/><rect class="cls-4" x="61.22779" y="-140.1649" width="2.85717" height="1360.33092"/></g></g><line class="cls-5" x1="6" x2="6" y2="1080"/></svg>