<svg id="Layer_1" data-name="Layer 1" xmlns="http://www.w3.org/2000/svg" viewBox="0 0 590 590"><defs><style>.cls-1,.cls-3{fill:#3f59c9;}.cls-2,.cls-4{fill:none;}.cls-2,.cls-3,.cls-4{stroke:#3f59c9;stroke-miterlimit:10;}.cls-2,.cls-3{stroke-linecap:round;stroke-width:40px;}.cls-4{stroke-width:12px;}</style></defs><path class="cls-1" d="M288.99973,143.178a151.89694,151.89694,0,1,1-107.33252,44.48957A151.872,151.872,0,0,1,288.99973,143.178m0-43.328c-107.79714,0-195.15,87.35285-195.15,195.15s87.35285,195.15,195.15,195.15,195.15-87.35287,195.15-195.15S396.79689,99.85,288.99973,99.85Z"/><polyline class="cls-2" points="325.474 237.5 390.873 340.883 390.873 430.56"/><polyline class="cls-2" points="193.167 430.56 193.167 340.883 258.449 237.965"/><path class="cls-3" d="M325.47419,237.50044a132.37854,132.37854,0,0,1-67.02474.46464l33.6866-53.20161Z"/><polyline class="cls-2" points="193.167 340.883 292.02 373.873 390.873 340.883"/><line class="cls-2" x1="292.01992" y1="373.87312" x2="294.6916" y2="456.23106"/><rect class="cls-4" x="6" y="6" width="64" height="64"/><rect class="cls-4" x="6.1" y="520" width="64" height="64"/><rect class="cls-4" x="520.09998" y="520" width="64" height="64"/><rect class="cls-4" x="520" y="6" width="64" height="64"/><line class="cls-4" x1="38.1" y1="70" x2="38.1" y2="520"/><line class="cls-4" x1="72" y1="38" x2="522" y2="38"/><line class="cls-4" x1="552" y1="70" x2="552" y2="520"/><line class="cls-4" x1="522" y1="552" x2="70.1" y2="552"/></svg>