<svg id="Layer_1" data-name="Layer 1" xmlns="http://www.w3.org/2000/svg" viewBox="0 0 600 600"><defs><style>.cls-1,.cls-3{fill:#798ddc;}.cls-1{stroke:#6254ef;stroke-miterlimit:10;stroke-width:35px;}.cls-2{fill:#fff;}</style></defs><circle class="cls-1" cx="300" cy="300" r="250"/><path class="cls-2" d="M327,240l23,22,93-93s8-33-23-18C395,174,327,240,327,240Z"/><polygon class="cls-2" points="319 249 340 271 307 285 319 249"/><path class="cls-2" d="M315,236s-65,105,42,40c23-26,31-33,31-33s26,0,27,37,0,116.07565,0,116.07565S418,428,369,429s-178.27769,0-178.27769,0S159,420,159,391V273.087S163,241,189,240,315,236,315,236Z"/><path class="cls-3" d="M318.74139,321.8996a9.98776,9.98776,0,0,1,0,17.29934l-24.37985,14.07572-24.37985,14.07571A9.9878,9.9878,0,0,1,255,358.70071V302.39783a9.98777,9.98777,0,0,1,14.98166-8.64966l24.37985,14.07571Z"/></svg>