<svg width="140" height="141" viewBox="0 0 140 141" fill="none" xmlns="http://www.w3.org/2000/svg">
<path d="M68.5646 34.2171C76.9028 34.213 84.9843 37.1215 91.4321 42.4471C97.8799 47.7727 102.295 55.1857 103.925 63.4228C105.554 71.66 104.298 80.2115 100.37 87.6201C96.4413 95.0287 90.0841 100.836 82.3814 104.052C74.6787 107.268 66.1072 107.694 58.1277 105.258C50.1481 102.821 43.2542 97.6723 38.6209 90.6893C33.9877 83.7062 31.9016 75.3208 32.7184 66.962C33.5352 58.6033 37.2042 50.7885 43.1002 44.8494C49.8537 38.0455 59.0129 34.2212 68.5646 34.2171ZM68.5646 23.8625C42.9899 23.8625 22.2657 44.7383 22.2657 70.5C22.2657 96.2617 42.9899 117.138 68.5646 117.138C94.1392 117.138 114.864 96.2617 114.864 70.5C114.864 44.7383 94.1392 23.8625 68.5646 23.8625Z" fill="white"/>
<path fill-rule="evenodd" clip-rule="evenodd" d="M74.6814 52.7192C76.896 51.308 79.827 51.9724 81.228 54.2032L97.4788 80.0804V102.897C97.4788 105.536 95.3544 107.676 92.7338 107.676C90.1132 107.676 87.9888 105.536 87.9888 102.897V82.8501L73.2081 59.3137C71.8071 57.0828 72.4667 54.1304 74.6814 52.7192Z" fill="white"/>
<path fill-rule="evenodd" clip-rule="evenodd" d="M63.8581 52.8334C66.071 54.2474 66.727 57.2007 65.3234 59.4298L50.5734 82.8533V102.897C50.5734 105.536 48.449 107.676 45.8285 107.676C43.2079 107.676 41.0835 105.536 41.0835 102.897V80.0772L57.3096 54.3094C58.7133 52.0803 61.6452 51.4195 63.8581 52.8334Z" fill="white"/>
<path d="M77.2181 56.7586C72.0148 58.1691 66.5388 58.2073 61.3166 56.8696L69.3087 44.1553L77.2181 56.7586Z" fill="white"/>
<path fill-rule="evenodd" clip-rule="evenodd" d="M69.3119 35.2156L84.6702 59.6882L78.4511 61.374C72.4617 62.9976 66.1584 63.0416 60.1472 61.5019L53.8092 59.8784L69.3119 35.2156Z" fill="white"/>
<path fill-rule="evenodd" clip-rule="evenodd" d="M41.3275 79.9522C42.1571 77.4482 44.8448 76.0958 47.3306 76.9314L69.2811 84.3105L91.2317 76.9314C93.7175 76.0958 96.4052 77.4482 97.2347 79.9522C98.0643 82.4562 96.7217 85.1635 94.2359 85.9991L69.2811 94.3881L44.3264 85.9991C41.8406 85.1635 40.498 82.4562 41.3275 79.9522Z" fill="white"/>
<path fill-rule="evenodd" clip-rule="evenodd" d="M69.1273 84.5722C71.7465 84.4866 73.9386 86.556 74.0236 89.1944L74.6574 108.877C74.7424 111.515 72.688 113.723 70.0688 113.809C67.4496 113.894 65.2575 111.825 65.1725 109.186L64.5387 89.5043C64.4537 86.866 66.5081 84.6578 69.1273 84.5722Z" fill="white"/>
<path fill-rule="evenodd" clip-rule="evenodd" d="M0 0H18.0308V18.1627H0V0ZM2.84698 2.8678V15.2949H15.1839V2.8678H2.84698Z" fill="white"/>
<path fill-rule="evenodd" clip-rule="evenodd" d="M0.0237248 122.837H18.0546V141H0.0237248V122.837ZM2.8707 125.705V138.132H15.2076V125.705H2.8707Z" fill="white"/>
<path fill-rule="evenodd" clip-rule="evenodd" d="M121.969 122.837H140V141H121.969V122.837ZM124.816 125.705V138.132H137.153V125.705H124.816Z" fill="white"/>
<path fill-rule="evenodd" clip-rule="evenodd" d="M121.945 0H139.976V18.1627H121.945V0ZM124.792 2.8678V15.2949H137.129V2.8678H124.792Z" fill="white"/>
<path fill-rule="evenodd" clip-rule="evenodd" d="M7.61566 124.271V16.7288H10.4626V124.271H7.61566Z" fill="white"/>
<path fill-rule="evenodd" clip-rule="evenodd" d="M123.843 10.5153H17.0819V7.64746H123.843V10.5153Z" fill="white"/>
<path fill-rule="evenodd" clip-rule="evenodd" d="M129.537 124.271V16.7288H132.384V124.271H129.537Z" fill="white"/>
<path fill-rule="evenodd" clip-rule="evenodd" d="M16.6311 130.485H123.843V133.353H16.6311V130.485Z" fill="white"/>
</svg>
