<svg width="420" height="141" viewBox="0 0 420 141" fill="none" xmlns="http://www.w3.org/2000/svg">
<g clip-path="url(#clip0_1_189)">
<path d="M348.565 34.2171C356.903 34.213 364.984 37.1215 371.432 42.4471C377.88 47.7727 382.295 55.1857 383.925 63.4228C385.554 71.66 384.298 80.2115 380.37 87.6201C376.441 95.0287 370.084 100.836 362.381 104.052C354.679 107.268 346.107 107.694 338.128 105.258C330.148 102.821 323.254 97.6723 318.621 90.6893C313.988 83.7062 311.902 75.3208 312.718 66.962C313.535 58.6033 317.204 50.7885 323.1 44.8494C329.854 38.0455 339.013 34.2212 348.565 34.2171ZM348.565 23.8625C322.99 23.8625 302.266 44.7383 302.266 70.5C302.266 96.2617 322.99 117.138 348.565 117.138C374.139 117.138 394.864 96.2617 394.864 70.5C394.864 44.7383 374.139 23.8625 348.565 23.8625Z" fill="#3F59C9"/>
<path fill-rule="evenodd" clip-rule="evenodd" d="M354.681 52.7192C356.896 51.308 359.827 51.9724 361.228 54.2033L377.479 80.0804V102.897C377.479 105.536 375.354 107.676 372.734 107.676C370.113 107.676 367.989 105.536 367.989 102.897V82.8501L353.208 59.3137C351.807 57.0828 352.467 54.1304 354.681 52.7192Z" fill="#3F59C9"/>
<path fill-rule="evenodd" clip-rule="evenodd" d="M343.858 52.8334C346.071 54.2474 346.727 57.2007 345.323 59.4298L330.573 82.8533V102.897C330.573 105.536 328.449 107.676 325.828 107.676C323.208 107.676 321.084 105.536 321.084 102.897V80.0772L337.31 54.3094C338.713 52.0803 341.645 51.4195 343.858 52.8334Z" fill="#3F59C9"/>
<path d="M357.218 56.7586C352.015 58.1691 346.539 58.2073 341.317 56.8696L349.309 44.1553L357.218 56.7586Z" fill="#3F59C9"/>
<path fill-rule="evenodd" clip-rule="evenodd" d="M349.312 35.2156L364.67 59.6882L358.451 61.374C352.462 62.9976 346.158 63.0416 340.147 61.5019L333.809 59.8784L349.312 35.2156Z" fill="#3F59C9"/>
<path fill-rule="evenodd" clip-rule="evenodd" d="M321.328 79.9522C322.157 77.4482 324.845 76.0958 327.331 76.9314L349.281 84.3105L371.232 76.9314C373.718 76.0958 376.405 77.4482 377.235 79.9522C378.064 82.4562 376.722 85.1635 374.236 85.9991L349.281 94.3881L324.326 85.9991C321.841 85.1635 320.498 82.4562 321.328 79.9522Z" fill="#3F59C9"/>
<path fill-rule="evenodd" clip-rule="evenodd" d="M349.127 84.5722C351.746 84.4866 353.939 86.556 354.024 89.1944L354.657 108.877C354.742 111.515 352.688 113.723 350.069 113.809C347.45 113.894 345.257 111.825 345.172 109.186L344.539 89.5043C344.454 86.866 346.508 84.6578 349.127 84.5722Z" fill="#3F59C9"/>
<path fill-rule="evenodd" clip-rule="evenodd" d="M280 0H298.031V18.1627H280V0ZM282.847 2.8678V15.2949H295.184V2.8678H282.847Z" fill="#3F59C9"/>
<path fill-rule="evenodd" clip-rule="evenodd" d="M280.024 122.837H298.055V141H280.024V122.837ZM282.871 125.705V138.132H295.208V125.705H282.871Z" fill="#3F59C9"/>
<path fill-rule="evenodd" clip-rule="evenodd" d="M401.969 122.837H420V141H401.969V122.837ZM404.816 125.705V138.132H417.153V125.705H404.816Z" fill="#3F59C9"/>
<path fill-rule="evenodd" clip-rule="evenodd" d="M401.945 0H419.976V18.1627H401.945V0ZM404.792 2.8678V15.2949H417.129V2.8678H404.792Z" fill="#3F59C9"/>
<path fill-rule="evenodd" clip-rule="evenodd" d="M287.616 124.271V16.7288H290.463V124.271H287.616Z" fill="#3F59C9"/>
<path fill-rule="evenodd" clip-rule="evenodd" d="M403.843 10.5153H297.082V7.64746H403.843V10.5153Z" fill="#3F59C9"/>
<path fill-rule="evenodd" clip-rule="evenodd" d="M409.537 124.271V16.7288H412.384V124.271H409.537Z" fill="#3F59C9"/>
<path fill-rule="evenodd" clip-rule="evenodd" d="M296.631 130.485H403.843V133.353H296.631V130.485Z" fill="#3F59C9"/>
<path d="M0 80.5093H10.2168C10.2866 84.4927 12.9367 87.1142 16.9118 87.1142C21.3054 87.1142 23.6766 84.4586 23.6766 79.522V45.8511H34.2072V79.5901C34.2072 90.0421 27.7912 96 17.0164 96C6.72986 96 0 89.9059 0 80.5093Z" fill="white"/>
<path d="M65.6946 45C80.584 45 89.9639 54.771 89.9639 70.4319C89.9639 86.0587 80.584 95.8298 65.6946 95.8298C50.7703 95.8298 41.4253 86.0587 41.4253 70.4319C41.4253 54.771 50.7703 45 65.6946 45ZM65.6946 53.5794C57.4653 53.5794 52.1651 60.1162 52.1651 70.4319C52.1651 80.7136 57.4305 87.2163 65.6946 87.2163C73.9238 87.2163 79.1892 80.7136 79.1892 70.4319C79.1892 60.1162 73.9238 53.5794 65.6946 53.5794Z" fill="white"/>
<path d="M140.49 94.9786H129.96V74.279H107.294V94.9786H96.7635V45.8511H107.294V65.8017H129.96V45.8511H140.49V94.9786Z" fill="white"/>
<path d="M158.936 94.9786H148.859V45.8511H157.646L181.148 77.8538H181.427V45.8511H191.505V94.9786H182.787L159.25 62.8057H158.936V94.9786Z" fill="white"/>
<path d="M210.439 45.8511V76.5941C210.439 82.8925 214.24 87.012 221.004 87.012C227.734 87.012 231.535 82.8925 231.535 76.5941V45.8511H242.066V77.6155C242.066 88.4419 233.871 95.8298 221.004 95.8298C208.103 95.8298 199.908 88.4419 199.908 77.6155V45.8511H210.439Z" fill="white"/>
<path d="M261 94.9786H250.469V45.8511H261V94.9786Z" fill="white"/>
</g>
<defs>
<clipPath id="clip0_1_189">
<rect width="420" height="141" fill="white"/>
</clipPath>
</defs>
</svg>
